<svg width="1215" height="160" viewBox="0 0 1215 160" fill="none" xmlns="http://www.w3.org/2000/svg">
<path d="M0.123022 157H38.623L48.523 126.2H107.923L117.823 157H156.323L103.523 2.99999H52.923L0.123022 157ZM58.423 95.4L76.023 40.4H80.423L98.023 95.4H58.423ZM161.866 157H197.066V2.99999H161.866V157ZM219.023 157H254.223V107.5H258.623L302.623 157H346.623L299.323 105.3C299.323 105.3 342.223 103.1 342.223 55.8C342.223 23.9 321.323 2.99999 291.623 2.99999H219.023V157ZM254.223 75.6V36H289.423C299.323 36 307.023 43.7 307.023 55.8C307.023 67.9 299.323 75.6 289.423 75.6H254.223ZM397.051 157H441.051C463.051 157 475.151 144.9 475.151 122.9V2.99999H439.951V113C439.951 119.6 436.651 122.9 430.051 122.9H397.051V157ZM564.182 159.2C605.982 159.2 638.982 126.2 638.982 80C638.982 33.8 605.982 0.799992 564.182 0.799992C522.382 0.799992 489.382 33.8 489.382 80C489.382 126.2 522.382 159.2 564.182 159.2ZM564.182 125.1C542.182 125.1 524.582 107.5 524.582 80C524.582 52.5 542.182 34.9 564.182 34.9C586.182 34.9 603.782 52.5 603.782 80C603.782 107.5 586.182 125.1 564.182 125.1ZM654.331 157H689.531V107.5H693.931L737.931 157H781.931L734.631 105.3C734.631 105.3 777.531 103.1 777.531 55.8C777.531 23.9 756.631 2.99999 726.931 2.99999H654.331V157ZM689.531 75.6V36H724.731C734.631 36 742.331 43.7 742.331 55.8C742.331 67.9 734.631 75.6 724.731 75.6H689.531ZM795.062 157H852.262C894.062 157 927.062 124 927.062 80C927.062 36 894.062 2.99999 852.262 2.99999H795.062V157ZM830.262 122.9V37.1H852.262C874.262 37.1 891.862 54.7 891.862 80C891.862 105.3 874.262 122.9 852.262 122.9H830.262ZM921.657 157H960.157L970.057 126.2H1029.46L1039.36 157H1077.86L1025.06 2.99999H974.457L921.657 157ZM979.957 95.4L997.557 40.4H1001.96L1019.56 95.4H979.957ZM1083.4 157H1118.6V64.6H1123L1171.4 157H1214.3V2.99999H1179.1V95.4H1174.7L1126.3 2.99999H1083.4V157Z" fill="white"/>
</svg>
