<svg width="123" height="30" viewBox="0 0 123 30" fill="none" xmlns="http://www.w3.org/2000/svg">
<path d="M43.4807 20.5736C46.9084 20.5736 49.0093 18.4727 49.0093 15.9296C49.0093 13.2758 46.6873 12.5018 46.6873 12.5018V12.3913C46.6873 12.3913 48.7881 11.6173 48.7881 9.16259C48.7881 6.75213 46.6873 4.65127 43.4807 4.65127C40.1635 4.65127 37.9521 6.8627 37.9521 9.51642H41.4904C41.4904 8.63185 42.1538 7.96842 43.3701 7.96842C44.5864 7.96842 45.2498 8.63185 45.2498 9.40585C45.2498 10.2904 44.5864 10.9538 43.3701 10.9538H42.2644V13.8287H43.3701C44.697 13.8287 45.471 14.6027 45.471 15.5978C45.471 16.4824 44.697 17.2564 43.3701 17.2564C42.0433 17.2564 41.2693 16.4824 41.2693 15.4873H37.731C37.731 18.3621 39.9424 20.5736 43.4807 20.5736ZM56.5273 20.5736C59.8444 20.5736 62.277 18.141 62.277 15.1556C62.277 12.1701 59.955 9.84813 56.859 9.84813L60.1761 4.87242H56.1955L51.7727 11.7278C51.3304 12.3913 50.7775 13.3864 50.7775 15.1556C50.7775 18.141 53.2101 20.5736 56.5273 20.5736ZM56.5273 17.2564C55.2004 17.2564 54.3158 16.3718 54.3158 15.1556C54.3158 13.9393 55.2004 13.0547 56.5273 13.0547C57.8541 13.0547 58.7387 13.9393 58.7387 15.1556C58.7387 16.3718 57.8541 17.2564 56.5273 17.2564ZM70.5664 20.5736C74.2152 20.5736 77.0901 17.6987 77.0901 12.6124C77.0901 7.52613 74.2152 4.65127 70.5664 4.65127C66.9175 4.65127 64.0427 7.52613 64.0427 12.6124C64.0427 17.6987 66.9175 20.5736 70.5664 20.5736ZM70.5664 17.1458C69.0184 17.1458 67.5809 15.7084 67.5809 12.6124C67.5809 9.51642 69.0184 8.07899 70.5664 8.07899C72.1144 8.07899 73.5518 9.51642 73.5518 12.6124C73.5518 15.7084 72.1144 17.1458 70.5664 17.1458ZM82.5012 11.0644C84.2703 11.0644 85.7077 9.62699 85.7077 7.85785C85.7077 6.0887 84.2703 4.65127 82.5012 4.65127C80.732 4.65127 79.2946 6.0887 79.2946 7.85785C79.2946 9.62699 80.732 11.0644 82.5012 11.0644ZM82.5012 9.07413C81.8377 9.07413 81.2849 8.52127 81.2849 7.85785C81.2849 7.19442 81.8377 6.64156 82.5012 6.64156C83.1646 6.64156 83.7175 7.19442 83.7175 7.85785C83.7175 8.52127 83.1646 9.07413 82.5012 9.07413Z" fill="#323232"/>
<path d="M115.638 3.88632L115.758 3.98845L122.076 10.1314C122.532 10.5741 122.566 11.2708 122.181 11.7533L122.076 11.8688L115.758 18.0117C115.264 18.4914 114.464 18.4914 113.971 18.0117C113.515 17.569 113.48 16.8716 113.865 16.3898L113.971 16.2743L119.394 11.0001L113.971 5.72597C113.515 5.28321 113.48 4.58648 113.865 4.10408L113.971 3.98852C114.426 3.54576 115.143 3.51143 115.638 3.88632Z" fill="#323232"/>
<path d="M7.37846 18.1138L7.25891 18.0117L0.941228 11.8688C0.485133 11.426 0.450582 10.7293 0.835495 10.2469L0.941228 10.1313L7.25891 3.98839C7.75302 3.50867 8.55257 3.50867 9.04607 3.98839C9.50216 4.43115 9.53671 5.12855 9.1518 5.61029L9.04607 5.72585L3.62267 11L9.04607 16.2742C9.50216 16.7169 9.53671 17.4136 9.1518 17.896L9.04607 18.0116C8.59066 18.4544 7.87395 18.4887 7.37846 18.1138Z" fill="#323232"/>
</svg>
