<svg width="26" height="14" viewBox="0 0 26 14" fill="none" xmlns="http://www.w3.org/2000/svg">
<mask id="path-1-outside-1_3_549" maskUnits="userSpaceOnUse" x="-2" y="-1" width="29" height="16" fill="black">
<rect fill="white" x="-2" y="-1" width="29" height="16"/>
<path d="M0.306484 13H3.45648L4.26648 10.48H9.12648L9.93648 13H13.0865L8.76648 0.399999H4.62648L0.306484 13ZM5.07648 7.96L6.51648 3.46H6.87648L8.31648 7.96H5.07648ZM20.1284 13.18C23.3684 13.18 25.4384 11.11 25.4384 7.78V0.399999H22.5584V7.78C22.5584 9.31 21.4784 10.39 20.1284 10.39C18.7784 10.39 17.6984 9.31 17.6984 7.78V0.399999H14.8184V7.78C14.8184 11.11 16.8884 13.18 20.1284 13.18Z"/>
</mask>
<path d="M0.306484 13L-0.639462 12.6757L-1.09352 14H0.306484V13ZM3.45648 13V14H4.18544L4.40851 13.306L3.45648 13ZM4.26648 10.48V9.48H3.53752L3.31446 10.174L4.26648 10.48ZM9.12648 10.48L10.0785 10.174L9.85544 9.48H9.12648V10.48ZM9.93649 13L8.98446 13.306L9.20753 14H9.93649V13ZM13.0865 13V14H14.4865L14.0324 12.6757L13.0865 13ZM8.76649 0.399999L9.71243 0.0756748L9.48077 -0.600001H8.76649V0.399999ZM4.62648 0.399999V-0.600001H3.9122L3.68054 0.0756748L4.62648 0.399999ZM5.07648 7.96L4.12406 7.65522L3.70653 8.96H5.07648V7.96ZM6.51648 3.46V2.46H5.78653L5.56406 3.15522L6.51648 3.46ZM6.87648 3.46L7.82891 3.15522L7.60644 2.46H6.87648V3.46ZM8.31648 7.96V8.96H9.68644L9.26891 7.65522L8.31648 7.96ZM0.306484 14H3.45648V12H0.306484V14ZM4.40851 13.306L5.21851 10.786L3.31446 10.174L2.50446 12.694L4.40851 13.306ZM4.26648 11.48H9.12648V9.48H4.26648V11.48ZM8.17446 10.786L8.98446 13.306L10.8885 12.694L10.0785 10.174L8.17446 10.786ZM9.93649 14H13.0865V12H9.93649V14ZM14.0324 12.6757L9.71243 0.0756748L7.82054 0.724324L12.1405 13.3243L14.0324 12.6757ZM8.76649 -0.600001H4.62648V1.4H8.76649V-0.600001ZM3.68054 0.0756748L-0.639462 12.6757L1.25243 13.3243L5.57243 0.724324L3.68054 0.0756748ZM6.02891 8.26478L7.46891 3.76478L5.56406 3.15522L4.12406 7.65522L6.02891 8.26478ZM6.51648 4.46H6.87648V2.46H6.51648V4.46ZM5.92406 3.76478L7.36406 8.26478L9.26891 7.65522L7.82891 3.15522L5.92406 3.76478ZM8.31648 6.96H5.07648V8.96H8.31648V6.96ZM25.4384 0.399999H26.4384V-0.600001H25.4384V0.399999ZM22.5584 0.399999V-0.600001H21.5584V0.399999H22.5584ZM17.6984 0.399999H18.6984V-0.600001H17.6984V0.399999ZM14.8184 0.399999V-0.600001H13.8184V0.399999H14.8184ZM20.1284 14.18C21.9652 14.18 23.5667 13.5887 24.7098 12.4316C25.8519 11.2755 26.4384 9.65429 26.4384 7.78H24.4384C24.4384 9.23571 23.99 10.3145 23.2871 11.0259C22.5852 11.7363 21.5317 12.18 20.1284 12.18V14.18ZM26.4384 7.78V0.399999H24.4384V7.78H26.4384ZM25.4384 -0.600001H22.5584V1.4H25.4384V-0.600001ZM21.5584 0.399999V7.78H23.5584V0.399999H21.5584ZM21.5584 7.78C21.5584 8.80543 20.8796 9.39 20.1284 9.39V11.39C22.0773 11.39 23.5584 9.81457 23.5584 7.78H21.5584ZM20.1284 9.39C19.3773 9.39 18.6984 8.80543 18.6984 7.78H16.6984C16.6984 9.81457 18.1796 11.39 20.1284 11.39V9.39ZM18.6984 7.78V0.399999H16.6984V7.78H18.6984ZM17.6984 -0.600001H14.8184V1.4H17.6984V-0.600001ZM13.8184 0.399999V7.78H15.8184V0.399999H13.8184ZM13.8184 7.78C13.8184 9.65429 14.405 11.2755 15.5471 12.4316C16.6902 13.5887 18.2917 14.18 20.1284 14.18V12.18C18.7252 12.18 17.6717 11.7363 16.9698 11.0259C16.2669 10.3145 15.8184 9.23571 15.8184 7.78H13.8184Z" fill="#C4C4C4" mask="url(#path-1-outside-1_3_549)"/>
</svg>
